<svg id="Filled" enable-background="new 0 0 512 512" height="512" viewBox="0 0 512 512" width="512" xmlns="http://www.w3.org/2000/svg"><path d="m56 72h320c17.7 0 32 14.3 32 32v224c0 17.7-14.3 32-32 32h-320c-17.7 0-32-14.3-32-32v-224c0-17.7 14.3-32 32-32z" fill="#f7cc38"/><path d="m24 376c0 17.7 14.3 32 32 32h320c17.7 0 32-14.3 32-32v-224c0-17.7-14.3-32-32-32h-176v-64c0-17.7-14.3-32-32-32h-112c-17.7 0-32 14.3-32 32z" fill="#fbe36a"/><path d="m493.7 355.1c-3.1-3.1-8.2-3.1-11.3 0l-113.2 113.2c-15.6 15.6-41 15.6-56.6-.1-14-14.1-15.6-36.3-3.7-52.2h22.1l-7 7c-9.4 9.3-9.4 24.5-.1 33.9s24.5 9.4 33.9.1c0 0 .1-.1.1-.1l124.5-124.5c15.6-15.6 15.6-40.9 0-56.6s-40.9-15.6-56.6 0l-9.8 9.8v-181.6c0-22.1-17.9-40-40-40h-168v-8c0-22.1-17.9-40-40-40h-112c-22.1 0-40 17.9-40 40v320c0 22.1 17.9 40 40 40h234.3c-13.3 27.9-1.3 61.3 26.6 74.6 21.4 10.1 46.8 5.7 63.6-11l113.1-113.1c3.2-3.2 3.2-8.2.1-11.4zm-169.3 44.9 75.6-75.6v22.6l-53 53zm51.6 0h-6.4l30.4-30.4v6.4c0 13.2-10.8 24-24 24zm-29.4 45.7c-3.1 3.1-8.2 3.1-11.3-.1-3.1-3.1-3.1-8.1 0-11.2l18.3-18.3h22.4.2zm90.5-158.4c9.4-9.4 24.6-9.4 33.9 0 9.4 9.4 9.4 24.6 0 33.9l-55 55c0-.1 0-.2 0-.2v-22.4l32.4-32.4c3.1-3.1 3.2-8.2.1-11.3s-8.2-3.2-11.3-.1c0 0 0 0-.1.1l-21.1 21.1v-22.6zm-61.1-207.3c13.2 0 24 10.8 24 24v16c-6.9-5.2-15.3-8-24-8h-168v-32zm-344 296v-320c0-13.2 10.8-24 24-24h112c13.2 0 24 10.8 24 24v64c0 4.4 3.6 8 8 8h176c13.2 0 24 10.8 24 24v149.7l-98.3 98.3h-245.7c-13.2 0-24-10.8-24-24z"/></svg>