<svg height="100" viewBox="0 0 512 512" width="100" xmlns="http://www.w3.org/2000/svg">
<path d="m320 8h-160c-53.019531 0-96 42.980469-96 96v80h352v-80c0-53.019531-42.980469-96-96-96zm0 0" fill="#434051"/>
<path d="m280 344c.011719 12.691406 5.082031 24.851562 14.09375 33.785156s21.214844 13.90625 33.90625 13.808594l16 .40625h63.839844c35.433594 0 64.160156 28.726562 64.160156 64.160156v47.839844h-464v-47.839844c0-35.433594 28.726562-64.160156 64.160156-64.160156h63.839844l16-.40625c12.691406.097656 24.894531-4.875 33.90625-13.808594s14.082031-21.09375 14.09375-33.785156v-32h80zm0 0" fill="#f7cca9"/>
<path d="m407.839844 392h-63.839844l-16-.40625c-8.441406.003906-16.738281-2.203125-24.0625-6.402344-.554688 34.917969-29.015625 62.933594-63.9375 62.933594s-63.382812-28.015625-63.9375-62.933594c-7.324219 4.199219-15.621094 6.40625-24.0625 6.402344l-16 .40625h-63.839844c-35.433594 0-64.160156 28.726562-64.160156 64.160156v47.839844h464v-47.839844c0-35.433594-28.726562-64.160156-64.160156-64.160156zm0 0" fill="#c7b299"/>
<path d="m280 344c.011719 12.691406 5.082031 24.851562 14.09375 33.785156s21.214844 13.90625 33.90625 13.808594l16 .40625h63.839844c35.433594 0 64.160156 28.726562 64.160156 64.160156v47.839844h-464v-47.839844c0-35.433594 28.726562-64.160156 64.160156-64.160156h63.839844l16-.40625c12.691406.097656 24.894531-4.875 33.90625-13.808594s14.082031-21.09375 14.09375-33.785156v-32h80zm0 0" fill="#f7cca9"/>
<path d="m281.121094 354.214844c-.742188-3.355469-1.117188-6.777344-1.121094-10.214844v-32h-80v32c-.003906 3.4375-.378906 6.859375-1.121094 10.214844 26.871094 7.714844 55.371094 7.714844 82.242188 0zm0 0" fill="#efbb95"/>
<path d="m84.800781 160c-16.769531.929688-29.636719 15.226562-28.800781 32-.835938 16.773438 12.03125 31.070312 28.800781 32h19.199219v-64zm0 0" fill="#efbb95"/>
<path d="m395.199219 160h-19.199219v64h19.199219c16.769531-.929688 29.636719-15.226562 28.800781-32 .835938-16.773438-12.03125-31.070312-28.800781-32zm0 0" fill="#efbb95"/>
<path d="m144 72c-36.382812 29.058594-57.101562 73.449219-56 120 0 83.949219 68.050781 152 152 152s152-68.050781 152-152c1.101562-46.550781-19.617188-90.941406-56-120l-32 32-32-32-32 32-32-32-40 32zm0 0" fill="#f7cca9"/>
<g fill="#915c39">
<path d="m168 192c-8.835938 0-16-7.164062-16-16s7.164062-16 16-16 16 7.164062 16 16-7.164062 16-16 16zm0-16"/>
<path d="m128 176c-4.417969 0-8-3.582031-8-8 .027344-22.082031 17.917969-39.972656 40-40 4.417969 0 8 3.582031 8 8s-3.582031 8-8 8c-13.253906 0-24 10.746094-24 24 0 4.417969-3.582031 8-8 8zm0 0"/>
<path d="m312 192c-8.835938 0-16-7.164062-16-16s7.164062-16 16-16 16 7.164062 16 16-7.164062 16-16 16zm0-16"/>
<path d="m352 176c-4.417969 0-8-3.582031-8-8 0-13.253906-10.746094-24-24-24-4.417969 0-8-3.582031-8-8s3.582031-8 8-8c22.082031.027344 39.972656 17.917969 40 40 0 4.417969-3.582031 8-8 8zm0 0"/>
</g><path d="m407.839844 392h-63.839844l-16-.40625c-8.441406.003906-16.738281-2.203125-24.0625-6.402344-.554688 34.917969-29.015625 62.933594-63.9375 62.933594s-63.382812-28.015625-63.9375-62.933594c-7.324219 4.199219-15.621094 6.40625-24.0625 6.402344l-16 .40625h-63.839844c-35.433594 0-64.160156 28.726562-64.160156 64.160156v47.839844h464v-47.839844c0-35.433594-28.726562-64.160156-64.160156-64.160156zm0 0" fill="#c7b299"/>
<path d="m136 392.070312h-63.839844c-35.421875-.007812-64.148437 28.699219-64.160156 64.121094v47.808594h173l-42.03125-112zm0 0" fill="#5f7bad"/>
<path d="m472 456.191406c-.011719-35.421875-28.738281-64.128906-64.160156-64.121094h-63.839844l-2.96875-.070312-42.03125 112h173zm0 0" fill="#5f7bad"/>
<path d="m360 224c0 13.253906-10.746094 24-24 24s-24-10.746094-24-24 10.746094-24 24-24 24 10.746094 24 24zm0 0" fill="#f4b8b2"/>
<path d="m168 224c0 13.253906-10.746094 24-24 24s-24-10.746094-24-24 10.746094-24 24-24 24 10.746094 24 24zm0 0" fill="#f4b8b2"/>
<path d="m240 248c-13.277344-.21875-25.269531-7.980469-30.910156-20-1.640625-2.480469-1.769532-5.660156-.335938-8.265625 1.429688-2.601563 4.1875-4.199219 7.160156-4.144531 2.96875.058594 5.664063 1.753906 6.996094 4.410156 5.089844 8.742188 9.738282 12 17.089844 12s12-3.257812 17.089844-12c1.332031-2.65625 4.027344-4.351562 6.996094-4.410156 2.972656-.054688 5.730468 1.542968 7.160156 4.144531 1.433594 2.605469 1.304687 5.785156-.335938 8.265625-5.640625 12.019531-17.632812 19.78125-30.910156 20zm0 0" fill="#e5703e"/>
<path d="m248 192h-16c-2.464844 0-4.789062-1.136719-6.308594-3.078125-1.515625-1.941406-2.050781-4.476563-1.453125-6.867187l8-32c1.101563-4.253907 5.425781-6.828126 9.691407-5.757813 4.265624 1.066406 6.867187 5.375 5.832031 9.648437l-5.515625 22.054688h5.753906c4.417969 0 8 3.582031 8 8s-3.582031 8-8 8zm0 0" fill="#915c39"/>
<path d="m184 176c0 8.835938-7.164062 16-16 16s-16-7.164062-16-16 7.164062-16 16-16 16 7.164062 16 16zm0 0"/>
<path d="m168 136c0-4.417969-3.582031-8-8-8-22.082031.027344-39.972656 17.917969-40 40 0 4.417969 3.582031 8 8 8s8-3.582031 8-8c0-13.253906 10.746094-24 24-24 4.417969 0 8-3.582031 8-8zm0 0"/>
<path d="m328 176c0 8.835938-7.164062 16-16 16s-16-7.164062-16-16 7.164062-16 16-16 16 7.164062 16 16zm0 0"/>
<path d="m320 144c13.253906 0 24 10.746094 24 24 0 4.417969 3.582031 8 8 8s8-3.582031 8-8c-.027344-22.082031-17.917969-39.972656-40-40-4.417969 0-8 3.582031-8 8s3.582031 8 8 8zm0 0"/>
<path d="m407.839844 384h-63.640625l-16.199219-.40625c-21.71875.074219-39.492188-17.277344-39.9375-38.992188 52.539062-16.71875 92.820312-59.234374 106.671875-112.601562h5.265625c17.648438 0 32-17.945312 32-40 .074219-9.339844-2.71875-18.472656-8-26.175781v-61.824219c-.066406-57.410156-46.589844-103.9335938-104-104h-160c-57.410156.0664062-103.933594 46.589844-104 104v61.824219c-5.28125 7.703125-8.074219 16.835937-8 26.175781 0 22.054688 14.351562 40 32 40h5.265625c13.851563 53.367188 54.132813 95.882812 106.671875 112.601562-.472656 21.78125-18.351562 39.148438-40.136719 38.992188l-15.800781.40625h-63.839844c-39.835937.042969-72.1171872 32.324219-72.160156 72.160156v47.839844c0 4.417969 3.582031 8 8 8h464c4.417969 0 8-3.582031 8-8v-47.839844c-.042969-39.835937-32.324219-72.117187-72.160156-72.160156zm-82.296875 15.480469-27.582031 96.519531h-115.921876l-27.582031-96.527344c5.011719-.203125 9.976563-1.074218 14.757813-2.59375 6.164062 34.269532 35.984375 59.203125 70.800781 59.203125s64.636719-24.933593 70.800781-59.203125c4.769532 1.527344 9.722656 2.402344 14.726563 2.601563zm74.457031-183.480469h-2c1.269531-7.9375 1.941406-15.960938 2-24-.015625-8.027344-.578125-16.046875-1.679688-24h1.679688c8.671875 0 16 10.992188 16 24s-7.328125 24-16 24zm-240-200h160c48.578125.058594 87.941406 39.421875 88 88v49.414062c-2.574219-.886718-5.277344-1.367187-8-1.414062h-4.640625c-7.707031-34.171875-26.933594-64.648438-54.457031-86.320312-3.183594-2.46875-7.707032-2.1875-10.558594.664062l-26.34375 26.34375-26.34375-26.34375c-3.125-3.121094-8.1875-3.121094-11.3125 0l-26.34375 26.34375-26.34375-26.34375c-2.882812-2.882812-7.472656-3.140625-10.65625-.589844l-33.550781 26.839844-19.050781-25.394531c-1.285157-1.714844-3.207032-2.839844-5.332032-3.128907-2.125-.285156-4.277344.296876-5.96875 1.609376-27.523437 21.671874-46.75 52.148437-54.457031 86.320312h-4.640625c-2.722656.046875-5.425781.527344-8 1.414062v-49.414062c.058594-48.578125 39.421875-87.941406 88-88zm-80 200c-8.671875 0-16-10.992188-16-24s7.328125-24 16-24h1.679688c-1.101563 7.953125-1.664063 15.972656-1.679688 24 .058594 8.039062.730469 16.0625 2 24zm16-24c-.8125-41.191406 16.183594-80.734375 46.632812-108.488281l18.96875 25.289062c1.296876 1.730469 3.242188 2.863281 5.390626 3.136719 2.148437.261719 4.3125-.347656 6.007812-1.691406l34.398438-27.527344 26.9375 26.9375c3.125 3.121094 8.1875 3.121094 11.3125 0l26.351562-26.34375 26.34375 26.34375c3.125 3.121094 8.1875 3.121094 11.3125 0l26.871094-26.871094c30.976562 27.75 48.3125 67.632813 47.472656 109.214844 0 79.527344-64.472656 144-144 144s-144-64.472656-144-144zm111.761719 156.734375c21.269531 4.355469 43.207031 4.355469 64.476562 0 1.441407 16.359375 10.039063 31.242187 23.488281 40.65625-2.84375 28.652344-26.953124 50.480469-55.746093 50.46875s-52.882813-21.851563-55.707031-50.507813c13.449218-9.398437 22.050781-24.269531 23.488281-40.617187zm-191.761719 107.425781c.035156-31 25.160156-56.125 56.160156-56.160156h64l1.75-.046875 27.480469 96.046875h-149.390625zm448 39.839844h-149.390625l27.4375-96.046875 1.953125.046875h63.839844c31 .035156 56.125 25.160156 56.160156 56.160156zm0 0"/>
<path d="m270.910156 228c1.640625-2.480469 1.769532-5.660156.335938-8.265625-1.429688-2.601563-4.1875-4.199219-7.160156-4.144531-2.96875.058594-5.664063 1.753906-6.996094 4.410156-5.089844 8.742188-9.738282 12-17.089844 12s-12-3.257812-17.089844-12c-1.332031-2.65625-4.027344-4.351562-6.996094-4.410156-2.972656-.054688-5.730468 1.542968-7.160156 4.144531-1.433594 2.605469-1.304687 5.785156.335938 8.265625 5.476562 12.160156 17.574218 19.976562 30.910156 19.976562s25.433594-7.816406 30.910156-19.976562zm0 0"/>
<path d="m232 192h16c4.417969 0 8-3.582031 8-8s-3.582031-8-8-8h-5.753906l5.515625-22.0625c.765625-2.800781-.042969-5.796875-2.113281-7.828125-2.074219-2.03125-5.082032-2.785156-7.867188-1.960937-2.785156.820312-4.902344 3.085937-5.542969 5.914062l-8 32c-.59375 2.390625-.058593 4.921875 1.457031 6.863281 1.515626 1.9375 3.84375 3.074219 6.304688 3.074219zm0 0"/>
</svg>