<svg id="Filled" height="512" viewBox="0 0 512 512" width="512" xmlns="http://www.w3.org/2000/svg"><path d="m352 368h32v56h-32z" fill="#e74444"/><path d="m144 232h32v48h-32z" fill="#e74444"/><ellipse cx="160" cy="136" fill="#ce3536" rx="104" ry="112"/><ellipse cx="368" cy="280" fill="#ce3536" rx="104" ry="112"/><circle cx="40" cy="40" fill="#4c8f56" r="16"/><path d="m392 25.373h32v67.882h-32z" fill="#2b70a8" transform="matrix(.707 -.707 .707 .707 77.559 305.872)"/><circle cx="472" cy="136" fill="#fcb442" r="16"/><path d="m43.314 298.745h32v67.882h-32z" fill="#2b70a8" transform="matrix(.707 -.707 .707 .707 -217.872 139.383)"/><circle cx="80" cy="456" fill="#ce3536" r="16"/><path d="m240 433.373h32v32h-32z" fill="#fcb442" transform="matrix(.707 -.707 .707 .707 -242.774 312.638)"/><path d="m436.686 402.745h32v67.882h-32z" fill="#4c8f56" transform="matrix(.707 .707 -.707 .707 441.373 -192.195)"/><path d="m156.287 352.973a24.012 24.012 0 0 1 0-33.946 39.728 39.728 0 0 0 11.713-28.277v-2.75h8a8 8 0 0 0 8-8v-26.783c50.262-11.8 88-59.874 88-117.217 0-66.168-50.243-120-112-120s-112 53.832-112 120c0 57.343 37.738 105.413 88 117.217v26.783a8 8 0 0 0 8 8h8v2.75a24.161 24.161 0 0 1 -7.027 16.963 40.013 40.013 0 0 0 0 56.574l18.74 18.74a24.031 24.031 0 0 1 0 33.946l-18.74 18.74a40 40 0 0 0 0 56.574l1.37 1.37a8 8 0 1 0 11.314-11.314l-1.37-1.37a24 24 0 0 1 0-33.946l18.74-18.74a40.05 40.05 0 0 0 0-56.574zm-92.287-216.973c0-57.346 43.065-104 96-104s96 46.654 96 104-43.065 104-96 104-96-46.654-96-104zm96 120c2.69 0 5.357-.108 8-.309v16.309h-16v-16.309c2.643.201 5.31.309 8 .309z"/><path d="m111.551 76.3a8 8 0 0 0 -11.251 1.169 94.539 94.539 0 0 0 0 117.062 8 8 0 0 0 12.424-10.082 78.547 78.547 0 0 1 0-96.9 8 8 0 0 0 -1.173-11.249z"/><path d="m480 280c0-66.168-50.243-120-112-120s-112 53.832-112 120c0 57.343 37.738 105.413 88 117.217v26.783a8 8 0 0 0 8 8h8v10.75a24.161 24.161 0 0 1 -7.027 16.963 39.742 39.742 0 0 0 -11.713 28.287 8 8 0 0 0 16 0 23.843 23.843 0 0 1 7.027-16.973 39.728 39.728 0 0 0 11.713-28.277v-10.75h8a8 8 0 0 0 8-8v-26.783c50.262-11.804 88-59.874 88-117.217zm-208 0c0-57.346 43.065-104 96-104s96 46.654 96 104-43.065 104-96 104-96-46.654-96-104zm104 136h-16v-16.309c2.643.2 5.31.309 8 .309s5.357-.108 8-.309z"/><path d="m40 64a24 24 0 1 0 -24-24 24.028 24.028 0 0 0 24 24zm0-32a8 8 0 1 1 -8 8 8.009 8.009 0 0 1 8-8z"/><path d="m448.971 66.343-48-48a8 8 0 0 0 -11.315 0l-22.627 22.627a8 8 0 0 0 0 11.314l48 48a8 8 0 0 0 11.315 0l22.627-22.627a8 8 0 0 0 0-11.314zm-28.284 16.97-36.687-36.686 11.313-11.314 36.687 36.687z"/><path d="m472 160a24 24 0 1 0 -24-24 24.028 24.028 0 0 0 24 24zm0-32a8 8 0 1 1 -8 8 8.009 8.009 0 0 1 8-8z"/><path d="m333.656 87.029-22.627 22.627a8 8 0 0 0 11.315 11.315l22.627-22.627a8 8 0 0 0 -11.315-11.315z"/><path d="m36.686 243.314a8 8 0 0 0 11.314 0l11.314-11.314a8 8 0 0 0 -11.314-11.314l-11.314 11.314a8 8 0 0 0 0 11.314z"/><path d="m72 376a7.974 7.974 0 0 0 5.657-2.343l22.627-22.627a8 8 0 0 0 0-11.314l-48-48a8 8 0 0 0 -11.314 0l-22.627 22.627a8 8 0 0 0 0 11.314l48 48a7.974 7.974 0 0 0 5.657 2.343zm-25.373-67.313 36.686 36.686-11.313 11.314-36.687-36.687z"/><path d="m80 432a24 24 0 1 0 24 24 24.028 24.028 0 0 0 -24-24zm0 32a8 8 0 1 1 8-8 8.009 8.009 0 0 1 -8 8z"/><path d="m232.971 344.971a8 8 0 0 0 0-11.315l-22.627-22.627a8 8 0 0 0 -11.315 11.315l22.627 22.627a8 8 0 0 0 11.315 0z"/><path d="m261.657 421.089a8 8 0 0 0 -11.314 0l-22.627 22.628a8 8 0 0 0 0 11.313l22.627 22.627a8 8 0 0 0 11.314 0l22.627-22.627a8 8 0 0 0 0-11.313zm-5.657 39.598-11.313-11.314 11.313-11.314 11.313 11.314z"/><path d="m471.03 395.716a8 8 0 0 0 -11.314 0l-48 48a8 8 0 0 0 0 11.314l22.627 22.627a8 8 0 0 0 11.314 0l48-48a8 8 0 0 0 0-11.314zm-31.03 64.971-11.313-11.314 36.686-36.686 11.314 11.313z"/><path d="m276.686 20.686a8 8 0 0 0 0 11.314l11.314 11.314a8 8 0 1 0 11.314-11.314l-11.314-11.314a8 8 0 0 0 -11.314 0z"/><path d="m319.551 222.808a8 8 0 0 0 -11.253 1.171 94.539 94.539 0 0 0 0 117.062 8 8 0 1 0 12.424-10.082 78.547 78.547 0 0 1 0-96.9 8 8 0 0 0 -1.171-11.251z"/></svg>