<svg id="Filled" height="512" viewBox="0 0 512 512" width="512" xmlns="http://www.w3.org/2000/svg"><path d="m200 72h112a128 128 0 0 1 128 128v48a0 0 0 0 1 0 0h-368a0 0 0 0 1 0 0v-48a128 128 0 0 1 128-128z" fill="#f7b030"/><path d="m392 376a96 96 0 0 1 -96 96h-80a96 96 0 0 1 -96-96v-128l80-64v48l72-48v48l72-48 48 64z" fill="#f0c6a4"/><path d="m24 376 16 16h32v-160h-32l-16 16z" fill="#3397e8"/><path d="m488 248-16-16h-32v160h32l16-16z" fill="#3397e8"/><g fill="#7e8589"><rect height="160" rx="16" width="48" x="72" y="232"/><rect height="160" rx="16" width="48" x="392" y="232"/><circle cx="192" cy="312" r="16"/><circle cx="320" cy="312" r="16"/></g><path d="m296 360h-80v8a40 40 0 0 0 80 0z" fill="#ed6f6d"/><path d="m40 200h32a128 128 0 0 1 128-128h112a128 128 0 0 1 128 128h32a160 160 0 0 0 -160-160h-112a160 160 0 0 0 -160 160z" fill="#3397e8"/><path d="m40 200h32v32h-32z" fill="#2978b8"/><path d="m440 200h32v32h-32z" fill="#2978b8"/><path d="m493.657 242.343-13.657-13.657v-28.686c0-92.636-75.364-168-168-168h-112c-92.636 0-168 75.364-168 168v28.686l-13.657 13.657a8 8 0 0 0 -2.343 5.657v128a8 8 0 0 0 2.343 5.657l16 16a8 8 0 0 0 5.657 2.343h32a7.975 7.975 0 0 0 5.659-2.345 23.858 23.858 0 0 0 10.341 2.345h16a23.843 23.843 0 0 0 10.28-2.318 104.176 104.176 0 0 0 101.72 82.318h80a104.176 104.176 0 0 0 101.72-82.318 23.843 23.843 0 0 0 10.28 2.318h16a23.858 23.858 0 0 0 10.341-2.345 7.975 7.975 0 0 0 5.659 2.345h32a8 8 0 0 0 5.657-2.343l16-16a8 8 0 0 0 2.343-5.657v-128a8 8 0 0 0 -2.343-5.657zm-103.6-10.262-39.657-52.881a8 8 0 0 0 -10.838-1.856l-59.562 39.708v-33.052a8 8 0 0 0 -12.438-6.656l-59.562 39.708v-33.052a8 8 0 0 0 -13-6.247l-71.086 56.869a24 24 0 0 0 -19.914-10.622h-16a23.889 23.889 0 0 0 -8 1.376v-25.376a120.136 120.136 0 0 1 120-120h112a120.136 120.136 0 0 1 120 120v25.376a23.889 23.889 0 0 0 -8-1.376h-16a23.943 23.943 0 0 0 -17.939 8.081zm-342.057-24.081h16v16h-16zm400 0h16v16h-16zm-248-160h112c81.127 0 147.614 63.9 151.792 144h-16.034c-4.158-71.28-63.453-128-135.758-128h-112c-72.3 0-131.6 56.72-135.758 128h-16.034c4.178-80.1 70.665-144 151.792-144zm-136 336h-20.686l-11.314-11.313v-121.374l11.314-11.313h20.686zm40 0h-16a8.009 8.009 0 0 1 -8-8v-8h8a8 8 0 0 0 0-16h-8v-16h8a8 8 0 0 0 0-16h-8v-16h8a8 8 0 0 0 0-16h-8v-16h8a8 8 0 0 0 0-16h-8v-8a8.009 8.009 0 0 1 8-8h16a8.009 8.009 0 0 1 8 8v128a8.009 8.009 0 0 1 -8 8zm192 80h-80a88.1 88.1 0 0 1 -88-88v-124.155l64-51.2v31.355a8 8 0 0 0 12.438 6.656l59.562-39.708v33.052a8 8 0 0 0 12.438 6.656l65.7-43.8 41.862 55.811v125.333a88.1 88.1 0 0 1 -88 88zm128-80h-16a8.009 8.009 0 0 1 -8-8v-128a8.009 8.009 0 0 1 8-8h16a8.009 8.009 0 0 1 8 8v8h-8a8 8 0 0 0 0 16h8v16h-8a8 8 0 0 0 0 16h8v16h-8a8 8 0 0 0 0 16h8v16h-8a8 8 0 0 0 0 16h8v8a8.009 8.009 0 0 1 -8 8zm56-11.313-11.314 11.313h-20.686v-144h20.686l11.314 11.313z"/><path d="m216 312a24 24 0 1 0 -24 24 24.027 24.027 0 0 0 24-24zm-24 8a8 8 0 1 1 8-8 8.009 8.009 0 0 1 -8 8z"/><path d="m280 328a8 8 0 0 0 -16 0 8 8 0 0 1 -16 0 8 8 0 0 0 -16 0 24 24 0 0 0 48 0z"/><path d="m320 288a24 24 0 1 0 24 24 24.027 24.027 0 0 0 -24-24zm0 32a8 8 0 1 1 8-8 8.009 8.009 0 0 1 -8 8z"/><path d="m296 352h-80a8 8 0 0 0 -8 8v8a48 48 0 0 0 96 0v-8a8 8 0 0 0 -8-8zm-40 48a32.036 32.036 0 0 1 -32-32h64a32.036 32.036 0 0 1 -32 32z"/><path d="m216 272a8 8 0 0 0 0-16h-48a8 8 0 0 0 0 16z"/><path d="m344 256h-48a8 8 0 0 0 0 16h48a8 8 0 0 0 0-16z"/></svg>