<svg id="Filled" height="300" viewBox="0 0 512 512" width="300" xmlns="http://www.w3.org/2000/svg"><path d="m72 72h320v416h-320z" fill="#d8c8b9"/><path d="m344 24v416h-320v-320l96-96z" fill="#fae8d8"/><path d="m120 24v96h-96z" fill="#d8c8b9"/><path d="m326.028 110.031h64v240h-64z" fill="#2b70a8" transform="matrix(.707 .707 -.707 .707 267.52 -185.789)"/><path d="m375 258.32-79.2 79.19-45.25-45.25 79.19-79.2z" fill="none"/><path d="m333.625 158.431h128v64.007h-128z" fill="#19629d" transform="matrix(.707 -.707 .707 .707 -18.196 336.94)"/><path d="m459.851 104.208a32 32 0 0 1 32 32v16a0 0 0 0 1 0 0h-64a0 0 0 0 1 0 0v-16a32 32 0 0 1 32-32z" fill="#fcb442" transform="matrix(.707 .707 -.707 .707 225.344 -287.613)"/><path d="m250.547 292.257 45.116 45.393-67.881 22.35z" fill="#fcb442"/><path d="m72 176h224a8 8 0 0 0 0-16h-224a8 8 0 0 0 0 16z"/><path d="m72 224h192a8 8 0 0 0 0-16h-192a8 8 0 0 0 0 16z"/><path d="m224 264a8 8 0 0 0 -8-8h-144a8 8 0 0 0 0 16h144a8 8 0 0 0 8-8z"/><path d="m200 304h-128a8 8 0 0 0 0 16h128a8 8 0 0 0 0-16z"/><path d="m168 128h128a8 8 0 0 0 0-16h-128a8 8 0 0 0 0 16z"/><path d="m184 352h-112a8 8 0 0 0 0 16h112a8 8 0 0 0 0-16z"/><path d="m476.738 167.889 5.741-5.741a40 40 0 0 0 -56.569-56.568l-11.31 11.314-14.6 14.6v-59.494a8 8 0 0 0 -8-8h-40v-40a8 8 0 0 0 -8-8h-224a8 8 0 0 0 -5.657 2.343l-96 96a8 8 0 0 0 -2.343 5.657v320a8 8 0 0 0 8 8h40v40a8 8 0 0 0 8 8h320a8 8 0 0 0 8-8v-243.373l65.425-65.427 11.262 11.331-62.319 61.937a8 8 0 1 0 11.279 11.348l67.993-67.576a8 8 0 0 0 .034-11.314zm-181.057 158.431-33.837-34.046 67.9-67.9 33.941 33.941zm-14.823 7.78-40.4 13.3 13.542-40.317zm94.142-87.1-33.942-33.941 79.2-79.2 33.942 33.947zm62.225-130.108a24 24 0 0 1 33.941 33.941l-5.657 5.657-33.941-33.941zm-53.225-36.892v67.491l-32 32v-99.491zm-272-36.687v68.687h-68.687zm-80 84.687h88a8 8 0 0 0 8-8v-88h208v163.491l-91.109 91.109.011.01a7.972 7.972 0 0 0 -1.938 3.1l-22.764 67.742a8 8 0 0 0 10.084 10.148l67.881-22.35a7.988 7.988 0 0 0 3.287-2.088l.007.007 34.541-34.542v123.373h-304zm352 352h-304v-32h264a8 8 0 0 0 8-8v-147.373l32-32z"/></svg>