<svg id="Filled" height="512" viewBox="0 0 512 512" width="512" xmlns="http://www.w3.org/2000/svg"><path d="m488 297.6v182.4h-464v-272h400z" fill="#f5cbaa"/><path d="m136 32h272v176h-272z" fill="#6a7073"/><path d="m168 64h208v176h-208z" fill="#a4d4f4"/><path d="m256 144h32a32 32 0 0 1 32 32v32a0 0 0 0 1 0 0h-96a0 0 0 0 1 0 0v-32a32 32 0 0 1 32-32z" fill="#4c8f56"/><path d="m248 96h48a0 0 0 0 1 0 0v32a16 16 0 0 1 -16 16h-16a16 16 0 0 1 -16-16v-32a0 0 0 0 1 0 0z" fill="#f5cbaa"/><path d="m264 64h48a0 0 0 0 1 0 0v16a16 16 0 0 1 -16 16h-48a0 0 0 0 1 0 0v-16a16 16 0 0 1 16-16z" fill="#684436" transform="matrix(-1 0 0 -1 560 160)"/><path d="m480 64v64h-112v-16h-32l32-32v-16z" fill="#fae8d8"/><path d="m56 176h32a16 16 0 0 1 16 16v16a0 0 0 0 1 0 0h-64a0 0 0 0 1 0 0v-16a16 16 0 0 1 16-16z" fill="#fcb442"/><path d="m24 208h400v272h-400z" fill="#757c80"/><path d="m24 272h400v160h-400z" fill="#fcb442"/><circle cx="272" cy="344" fill="#7e8488" r="104"/><circle cx="272" cy="344" fill="#6a7073" r="64"/><path d="m488 297.6v182.4h-105.33a79.589 79.589 0 0 1 -6.67-32h.16l-51.89-76.81a32 32 0 1 1 53.02-35.83l46.71 69.13v-196.49z" fill="#f5cbaa"/><path d="m24 304h32a64 64 0 0 1 64 64v112a0 0 0 0 1 0 0h-96a0 0 0 0 1 0 0v-176a0 0 0 0 1 0 0z" fill="#7e8488"/><circle cx="272" cy="344" fill="#7e8488" r="16"/><path d="m430.51 203.35a8 8 0 0 0 -6.51-3.35h-8v-64h64a8 8 0 0 0 8-8v-64a8 8 0 0 0 -8-8h-64v-24a8 8 0 0 0 -8-8h-272a8 8 0 0 0 -8 8v168h-16v-8a24.028 24.028 0 0 0 -24-24h-32a24.028 24.028 0 0 0 -24 24v8h-8a8 8 0 0 0 -8 8v272a8 8 0 0 0 8 8h464a8 8 0 0 0 8-8v-182.4a8.008 8.008 0 0 0 -1.49-4.651zm-112.869 172.318.271.4a56 56 0 1 1 6.2-52.6 39.98 39.98 0 0 0 -6.469 52.2zm20.428-60.3a72.014 72.014 0 1 0 -10.719 74.674l13.842 20.49a95.966 95.966 0 1 1 22.5-95.1 39.643 39.643 0 0 0 -25.618-.063zm-282.069-19.368h-24v-16h148.141a111.779 111.779 0 0 0 13.559 144h-65.7v-56a72.081 72.081 0 0 0 -72-72zm72 144h86.369a111.945 111.945 0 0 0 115.347 0h31.384l6.927 10.253a87.423 87.423 0 0 0 3.3 21.747h-243.327zm255.087-110.271a111.487 111.487 0 0 0 -19.162-49.729h52.075v98.361l-32.081-47.479c-.266-.395-.553-.77-.832-1.153zm16.913-129.729h-16v-64h16zm-144-72v-24h32v24a8.009 8.009 0 0 1 -8 8h-16a8.009 8.009 0 0 1 -8-8zm40-40h-40v-8a8.009 8.009 0 0 1 8-8h40v8a8.009 8.009 0 0 1 -8 8zm-56-8v48a23.844 23.844 0 0 0 2.37 10.394 40.069 40.069 0 0 0 -26.37 37.606v24h-40v-128h65.376a23.889 23.889 0 0 0 -1.376 8zm-8 96a24.027 24.027 0 0 1 24-24h32a24.027 24.027 0 0 1 24 24v24h-80zm69.63-37.606a23.844 23.844 0 0 0 2.37-10.394v-25.376a24.039 24.039 0 0 0 16-22.624v-8h40v4.687l-29.657 29.656a8 8 0 0 0 5.657 13.657h24v8a8 8 0 0 0 8 8v64h-40v-24a40.069 40.069 0 0 0 -26.37-37.606zm170.37-18.394h-96v-8a8 8 0 0 0 -8-8h-12.687l18.344-18.343a8 8 0 0 0 2.343-5.657v-8h96zm-328-80h256v16h-232a8 8 0 0 0 -8 8v136h-16zm-96 152a8.009 8.009 0 0 1 8-8h32a8.009 8.009 0 0 1 8 8v8h-48zm368 24v48h-65.624q-1.6-1.569-3.268-3.084a111.892 111.892 0 0 0 -153.408 3.084h-161.7v-48zm-384 96h24a56.063 56.063 0 0 1 56 56v104h-80zm448 160h-91.875a71.314 71.314 0 0 1 -4.109-22.484 8 8 0 0 0 -1.227-6l-51.889-76.808a24 24 0 1 1 39.764-26.87l46.71 69.131a8 8 0 0 0 14.626-4.479v-171.527l48 67.2z"/><path d="m408 104h40a8 8 0 0 0 0-16h-40a8 8 0 0 0 0 16z"/><path d="m56 248h48a8 8 0 0 0 0-16h-48a8 8 0 0 0 0 16z"/><path d="m272 320a24 24 0 1 0 24 24 24.027 24.027 0 0 0 -24-24zm0 32a8 8 0 1 1 8-8 8.009 8.009 0 0 1 -8 8z"/></svg>